<?xml version="1.0" encoding="iso-8859-1"?>
<!-- Generator: Adobe Illustrator 18.1.1, SVG Export Plug-In . SVG Version: 6.00 Build 0)  -->
<svg version="1.1" id="Capa_1" xmlns="http://www.w3.org/2000/svg" xmlns:xlink="http://www.w3.org/1999/xlink" x="0px" y="0px"
	 viewBox="0 0 442 442" style="enable-background:new 0 0 442 442;" xml:space="preserve">
<g>
	<g>
		<path d="M221,155.833c9.35,0,17-7.65,17-17v-17c0-9.35-7.65-17-17-17c-9.35,0-17,7.65-17,17v17
			C204,148.183,211.65,155.833,221,155.833z"/>
		<path d="M187,223.833h17v96.333c0,9.35,7.65,17,17,17c9.35,0,17-7.65,17-17V206.833c0-9.35-7.65-17-17-17h-34
			c-9.35,0-17,7.65-17,17S177.65,223.833,187,223.833z"/>
		<path d="M442,17c0-9.35-7.65-17-17-17H17C7.65,0,0,7.65,0,17v408c0,9.35,7.65,17,17,17h408c9.35,0,17-7.65,17-17V17z M408,408H34
			V34h374V408z"/>
	</g>
</g>
<g>
</g>
<g>
</g>
<g>
</g>
<g>
</g>
<g>
</g>
<g>
</g>
<g>
</g>
<g>
</g>
<g>
</g>
<g>
</g>
<g>
</g>
<g>
</g>
<g>
</g>
<g>
</g>
<g>
</g>
</svg>
